<svg xmlns="http://www.w3.org/2000/svg" width="1200" height="1200" viewBox="0 0 1200 1200" fill="none">
  <rect width="1200" height="1200" fill="#FFFFFF" rx="48"/>
  <rect x="54" y="54" width="1092" height="1092" rx="44" fill="#FFFFFF" stroke="#E5E7EB" stroke-width="8"/>
  <ellipse cx="600" cy="948" rx="232" ry="58" fill="#E5E7EB" opacity=".6"/>
  <path d="M300 1024C325 865 449 740 600 740C751 740 875 865 900 1024H300Z" fill="#1F2937"/>
  <path d="M463 745H737V1024H463V745Z" fill="#F8FAFC"/>
  <path d="M500 745C532 720 565 704 600 704C635 704 668 720 700 745L672 785H528L500 745Z" fill="#F8FAFC"/>
  <path d="M600 786L558 862L600 1024L642 862L600 786Z" fill="#9A2E44"/>
  <path d="M450 430C450 296 512 214 600 214C688 214 750 296 750 430C750 542 683 634 600 634C517 634 450 542 450 430Z" fill="#F1D0BD"/>
  <path d="M431 418C431 297 503 198 600 198C697 198 769 297 769 418C769 449 763 478 753 505C735 458 707 426 675 408C648 393 624 384 600 384C576 384 552 393 525 408C493 426 465 458 447 505C437 478 431 449 431 418Z" fill="#111827"/>
  <path d="M430 390C430 300 501 224 600 224C699 224 770 300 770 390C749 379 728 373 703 372C680 371 659 367 639 357C624 349 612 337 600 337C588 337 576 349 561 357C541 367 520 371 497 372C472 373 451 379 430 390Z" fill="#111827"/>
  <path d="M460 447C473 395 511 364 600 364C689 364 727 395 740 447C722 428 696 417 667 408C642 400 621 394 600 394C579 394 558 400 533 408C504 417 478 428 460 447Z" fill="#111827"/>
  <path d="M465 460C478 447 493 437 511 429C528 422 543 418 555 418H545C511 418 489 429 473 444L465 460Z" fill="#111827" opacity=".85"/>
  <path d="M735 460C722 447 707 437 689 429C672 422 657 418 645 418H655C689 418 711 429 727 444L735 460Z" fill="#111827" opacity=".85"/>
  <circle cx="546" cy="450" r="10" fill="#1F2937"/>
  <circle cx="654" cy="450" r="10" fill="#1F2937"/>
  <path d="M564 512C581 528 619 528 636 512" stroke="#A16252" stroke-width="8" stroke-linecap="round"/>
  <path d="M524 569C542 592 562 603 600 603C638 603 658 592 676 569" stroke="#D6A08C" stroke-width="8" stroke-linecap="round" opacity=".75"/>
  <path d="M500 610C520 582 548 567 600 567C652 567 680 582 700 610V705H500V610Z" fill="#F1D0BD"/>
  <path d="M487 610H530V705H487C465 705 448 688 448 666V639C448 625 459 610 487 610Z" fill="#F1D0BD"/>
  <path d="M670 610H713C741 610 752 625 752 639V666C752 688 735 705 713 705H670V610Z" fill="#F1D0BD"/>
  <path d="M368 565C404 500 456 453 500 440C507 453 519 466 534 476C498 490 454 527 426 592C408 633 401 685 403 747H360V662C360 628 363 595 368 565Z" fill="#111827"/>
  <path d="M832 565C796 500 744 453 700 440C693 453 681 466 666 476C702 490 746 527 774 592C792 633 799 685 797 747H840V662C840 628 837 595 832 565Z" fill="#111827"/>
</svg>
