<svg xmlns="http://www.w3.org/2000/svg" width="1200" height="1200" viewBox="0 0 1200 1200" fill="none">
  <rect width="1200" height="1200" fill="#FFFFFF" rx="48"/>
  <rect x="54" y="54" width="1092" height="1092" rx="44" fill="#FFFFFF" stroke="#E5E7EB" stroke-width="8"/>
  <ellipse cx="600" cy="950" rx="230" ry="56" fill="#E5E7EB" opacity=".6"/>
  <path d="M310 1020C335 872 455 744 600 744C745 744 865 872 890 1020H310Z" fill="#172033"/>
  <path d="M459 748H741V1020H459V748Z" fill="#F8FAFC"/>
  <path d="M525 748L600 870L675 748H525Z" fill="#7B1E3A"/>
  <path d="M490 735C518 708 557 690 600 690C643 690 682 708 710 735L684 770H516L490 735Z" fill="#F8FAFC"/>
  <path d="M452 428C452 294 511 214 600 214C689 214 748 294 748 428C748 542 682 633 600 633C518 633 452 542 452 428Z" fill="#F1D0BD"/>
  <path d="M452 428C452 294 511 214 600 214C689 214 748 294 748 428C748 542 682 633 600 633C518 633 452 542 452 428Z" fill="#F1D0BD"/>
  <path d="M438 427C438 299 507 199 600 199C693 199 762 299 762 427C742 395 707 372 667 360C639 351 617 343 600 343C583 343 561 351 533 360C493 372 458 395 438 427Z" fill="#111827"/>
  <path d="M460 398C476 332 521 285 600 285C679 285 724 332 740 398C722 377 695 365 667 356C640 347 620 341 600 341C580 341 560 347 533 356C505 365 478 377 460 398Z" fill="#111827"/>
  <path d="M474 414C487 385 513 366 551 357C576 351 589 348 600 348C611 348 624 351 649 357C687 366 713 385 726 414C705 401 675 394 642 394H558C525 394 495 401 474 414Z" fill="#111827"/>
  <circle cx="548" cy="448" r="10" fill="#1F2937"/>
  <circle cx="652" cy="448" r="10" fill="#1F2937"/>
  <path d="M561 512C578 529 622 529 639 512" stroke="#A16252" stroke-width="8" stroke-linecap="round"/>
  <path d="M546 556C568 577 632 577 654 556" stroke="#D6A08C" stroke-width="10" stroke-linecap="round" opacity=".7"/>
  <rect x="528" y="560" width="144" height="120" rx="48" fill="#F1D0BD"/>
  <path d="M507 560H545V699H507C485 699 468 682 468 660V599C468 577 485 560 507 560Z" fill="#F1D0BD"/>
  <path d="M655 560H693C715 560 732 577 732 599V660C732 682 715 699 693 699H655V560Z" fill="#F1D0BD"/>
  <circle cx="508" cy="620" r="12" fill="#F1D0BD"/>
  <circle cx="692" cy="620" r="12" fill="#F1D0BD"/>
</svg>
